<?xml version="1.0" encoding="UTF-8"?>
<svg id="Layer_1" data-name="Layer 1" xmlns="http://www.w3.org/2000/svg" viewBox="0 0 200 60">
  <defs>
    <style>
      .cls-1, .cls-2 {
        fill: #c5a153;
      }

      .cls-1, .cls-3 {
        fill-rule: evenodd;
      }
    </style>
  </defs>
  <g>
    <g>
      <path class="cls-2" d="M4.52,30.61c5.06,3.5,10.11,7.01,15.17,10.51l.5-5.73-12.68-8.79,10.16-14.66-4.14-.36L3.01,26.76l1.83.16-.32,3.7Z"/>
      <polygon class="cls-2" points="33.33 32.87 27.6 32.37 18.81 45.06 4.14 34.9 3.79 39.04 18.96 49.55 19.12 47.72 22.82 48.04 33.33 32.87"/>
      <polygon class="cls-2" points="39.93 33.44 40.25 29.74 25.07 19.23 24.58 24.96 37.26 33.75 27.1 48.41 31.24 48.77 41.76 33.6 39.93 33.44"/>
      <path class="cls-2" d="M11.43,27.48l5.73.5,8.79-12.68,14.66,10.16.36-4.14-15.17-10.51-.16,1.83-3.7-.32c-3.5,5.06-7.01,10.11-10.51,15.17Z"/>
    </g>
    <path class="cls-1" d="M24.54,27.7s.29,1.75-1.11,3.44c-1.5,1.8-3.2,1.51-3.2,1.51,0,0-.32-1.42.94-3.07,1.41-1.86,3.38-1.87,3.38-1.87Z"/>
    <g>
      <path d="M67.85,26.63c0,.33-.02.66-.05,1.01-.03.35-.09.7-.19,1.04-.09.34-.22.66-.37.97-.16.3-.36.57-.61.8-.39.37-.87.63-1.43.78-.57.15-1.11.25-1.62.31-1,.11-2,.19-3.01.23-1.01.05-2.02.07-3.03.07h-8.12c-.3,0-.54-.1-.75-.3-.2-.2-.3-.45-.3-.74v-1.51c0-.29.1-.54.3-.74.2-.2.45-.3.75-.3h10.12c.09,0,.21,0,.36.01.15,0,.31.01.48.01.37,0,.76-.02,1.17-.05.4-.03.69-.1.86-.21.22-.13.37-.29.47-.51.09-.21.14-.43.14-.65,0-.27-.07-.53-.21-.78s-.35-.42-.63-.52c-.22-.08-.54-.13-.98-.15-.44-.02-.86-.04-1.26-.04h-5.81c-.47,0-.96,0-1.49-.02-.53-.02-1.05-.07-1.55-.16-.51-.09-.98-.24-1.41-.44-.44-.2-.79-.48-1.07-.84-.34-.45-.56-.98-.65-1.59-.09-.61-.14-1.17-.14-1.7s.05-1.09.14-1.69c.09-.6.3-1.12.61-1.57.37-.5.87-.87,1.49-1.12.42-.17.93-.31,1.54-.41.61-.1,1.24-.18,1.91-.22.67-.05,1.33-.07,1.98-.08.65,0,1.24-.01,1.77-.01h8.65c.28,0,.52.1.72.31.2.21.3.45.3.73v1.54c0,.3-.1.54-.3.75-.2.2-.44.3-.72.3h-2.71c-.75,0-1.53,0-2.34-.01-.82,0-1.51-.01-2.09-.01-1.28,0-2.29.02-3.03.05s-1.32.07-1.71.13c-.4.05-.67.12-.82.19-.15.07-.25.15-.31.24-.2.26-.3.52-.3.77,0,.26.1.5.29.7.19.2.45.35.78.44.08.03.21.05.38.06.18,0,.37.02.58.04.21.02.41.02.59.02h3.29c.84,0,1.68,0,2.52.02.84.02,1.69.05,2.54.09.64.03,1.28.14,1.92.34.65.19,1.16.56,1.55,1.11.33.45.54.98.64,1.57.1.6.15,1.17.15,1.71Z"/>
      <path d="M95.65,31.85c-.29,0-.54-.1-.74-.3-.2-.2-.3-.45-.3-.75v-14.21c0-.29.1-.55.3-.76.2-.21.45-.31.74-.31h2.88c.29,0,.54.11.74.32s.3.46.3.76v7.09c0,.3.1.55.32.75.21.2.46.3.76.3h9.14c.3,0,.55-.1.76-.3.21-.2.32-.45.32-.75v-7.09c0-.3.1-.55.3-.76.2-.21.45-.32.74-.32h2.86c.31,0,.56.1.77.31.2.21.3.46.3.76v14.21c0,.3-.1.54-.3.75-.2.2-.46.3-.77.3h-2.86c-.29,0-.54-.1-.74-.3-.2-.2-.3-.45-.3-.75v-1.82c0-.3-.11-.54-.32-.75-.21-.2-.46-.3-.76-.3h-9.14c-.3,0-.55.1-.76.3-.21.2-.32.45-.32.75v1.82c0,.3-.1.54-.3.75-.2.2-.45.3-.74.3h-2.88Z"/>
      <path d="M158.41,24.46c.16.14.3.21.42.21.23,0,.35-.18.35-.54v-7.44c0-.3.11-.54.31-.75.21-.2.46-.3.73-.3h2.82c.3,0,.54.1.75.3.2.2.3.45.3.75v14c0,.3-.1.54-.3.75s-.45.3-.75.3h-2.82c-.28,0-.6-.07-.96-.21-.36-.14-.65-.3-.86-.49l-8.93-8.12c-.17-.14-.31-.21-.42-.21-.23,0-.35.18-.35.54v7.44c0,.3-.1.54-.3.75-.2.2-.45.3-.75.3h-2.82c-.3,0-.54-.1-.75-.3-.2-.2-.3-.45-.3-.75v-14c0-.3.1-.54.3-.75.2-.2.45-.3.75-.3h2.82c.3,0,.62.07.97.21.35.14.63.3.85.49l8.93,8.12Z"/>
      <path d="M141.33,30.92l-7.7-14.46c-.14-.26-.36-.49-.66-.66-.3-.18-.6-.27-.9-.27h-4.18c-.3,0-.6.09-.91.27-.31.18-.54.4-.68.66l-8,14.46c-.08.16-.12.3-.12.42,0,.34.22.51.65.51h3.43c.3,0,.6-.09.9-.27.3-.18.52-.4.66-.66l1.59-2.98h8.89l1.56,2.98c.12.26.34.49.64.66.3.18.6.27.9.27h3.36c.45,0,.68-.18.68-.54,0-.11-.04-.24-.12-.4ZM127.13,24.74l2.29-4.3c.14-.25.3-.37.49-.37.2,0,.37.13.51.4l2.23,4.27h-5.52Z"/>
      <path class="cls-3" d="M195.4,24.74h-9.11l-4.41-8.29c-.14-.26-.36-.49-.66-.66-.3-.18-.6-.27-.9-.27h-4.18c-.3,0-.6.09-.91.27-.31.18-.54.4-.68.66l-8,14.46c-.08.16-.12.3-.12.42,0,.34.22.51.65.51h3.43c.3,0,.6-.09.9-.27.3-.18.52-.4.66-.66l1.59-2.99s.1,0,.15,0h8.74l1.56,2.98c.12.26.34.49.64.66.3.18.6.27.9.27h3.36c.45,0,.68-.18.68-.54,0-.11-.04-.24-.12-.4l-1.59-2.98h7.41c.88,0,1.6-.72,1.6-1.6s-.72-1.6-1.6-1.6ZM179.39,23.86c-1.5,1.8-3.2,1.51-3.2,1.51,0,0-.32-1.42.94-3.07,1.41-1.86,3.38-1.87,3.38-1.87,0,0,.29,1.75-1.11,3.44Z"/>
      <path class="cls-3" d="M92.16,30.92l-7.7-14.46c-.14-.26-.36-.49-.66-.66-.3-.18-.6-.27-.9-.27h-4.18c-.3,0-.6.09-.91.27-.31.18-.54.4-.68.66l-8,14.46c-.08.16-.12.3-.12.42,0,.34.22.51.65.51h3.43c.3,0,.59-.09.9-.27.3-.18.52-.4.66-.66l1.59-2.98h8.89l1.56,2.98c.12.26.34.49.64.66.3.18.6.27.9.27h3.36c.45,0,.68-.18.68-.54,0-.11-.04-.24-.12-.4ZM81.97,23.86c-1.5,1.8-3.2,1.51-3.2,1.51,0,0-.32-1.42.94-3.07,1.41-1.86,3.38-1.87,3.38-1.87,0,0,.29,1.75-1.11,3.44Z"/>
    </g>
    <g>
      <path d="M50.59,41.67c.26,0,.45-.03.56-.08.11-.05.16-.15.16-.3,0-.12-.07-.22-.21-.3-.14-.09-.36-.18-.65-.29-.23-.08-.43-.17-.61-.26-.18-.09-.34-.2-.47-.32-.13-.13-.23-.27-.3-.45-.07-.17-.11-.38-.11-.63,0-.48.18-.85.53-1.13.35-.28.84-.41,1.46-.41.31,0,.6.03.89.08.28.05.51.11.68.18l-.25,1.12c-.17-.06-.35-.11-.54-.15-.2-.04-.42-.07-.66-.07-.45,0-.68.13-.68.38,0,.06,0,.11.03.15.02.05.06.09.12.13.06.04.14.09.24.14.1.05.23.1.38.16.31.12.58.23.78.35.21.11.37.24.49.37.12.13.2.28.25.44.05.16.07.35.07.56,0,.5-.19.88-.56,1.14-.38.26-.91.38-1.6.38-.45,0-.82-.04-1.12-.12-.3-.08-.51-.14-.62-.19l.24-1.17c.24.1.49.17.75.23.26.05.51.08.76.08Z"/>
      <path d="M58.72,37.63c-.29.98-.59,1.89-.91,2.75-.32.86-.66,1.68-1.03,2.49-.14.29-.27.54-.41.74-.14.2-.28.37-.44.5-.16.13-.34.23-.55.29-.2.06-.44.09-.71.09-.23,0-.43-.02-.62-.06-.19-.04-.35-.09-.47-.14l.25-1.15c.15.05.28.09.4.11s.24.03.37.03c.26,0,.45-.07.59-.21.14-.14.26-.33.35-.57-.33-.64-.66-1.36-.98-2.17-.33-.8-.64-1.7-.93-2.7h1.52c.06.25.14.52.23.81.09.29.18.59.28.89.1.3.2.59.3.87.1.28.2.54.29.77.08-.23.17-.49.26-.77.09-.28.18-.57.27-.87.09-.3.17-.59.25-.89.08-.29.15-.56.22-.81h1.49Z"/>
      <path d="M61.32,41.67c.26,0,.45-.03.56-.08.11-.05.16-.15.16-.3,0-.12-.07-.22-.21-.3-.14-.09-.36-.18-.65-.29-.23-.08-.43-.17-.61-.26-.18-.09-.34-.2-.47-.32-.13-.13-.23-.27-.3-.45-.07-.17-.11-.38-.11-.63,0-.48.18-.85.53-1.13.35-.28.84-.41,1.46-.41.31,0,.6.03.89.08.28.05.51.11.68.18l-.25,1.12c-.17-.06-.35-.11-.54-.15-.2-.04-.42-.07-.66-.07-.45,0-.68.13-.68.38,0,.06,0,.11.03.15.02.05.06.09.12.13.06.04.14.09.24.14.1.05.23.1.38.16.31.12.58.23.78.35.21.11.37.24.49.37.12.13.2.28.25.44.05.16.07.35.07.56,0,.5-.19.88-.56,1.14-.38.26-.91.38-1.6.38-.45,0-.82-.04-1.12-.12-.3-.08-.51-.14-.62-.19l.24-1.17c.24.1.49.17.75.23.26.05.51.08.76.08Z"/>
      <path d="M64.88,36.36l1.44-.23v1.49h1.73v1.2h-1.73v1.78c0,.3.05.54.16.72.11.18.32.27.64.27.15,0,.31-.01.48-.04.16-.03.31-.07.45-.12l.2,1.12c-.17.07-.37.13-.58.18-.21.05-.47.08-.78.08-.39,0-.72-.05-.97-.16-.26-.11-.46-.25-.62-.44-.15-.19-.26-.42-.32-.69-.06-.27-.09-.57-.09-.9v-4.26Z"/>
      <path d="M69.16,40.2c0-.45.07-.84.21-1.18.14-.34.32-.62.54-.84.23-.22.48-.4.78-.51s.59-.17.9-.17c.72,0,1.29.22,1.71.66.42.44.63,1.09.63,1.94,0,.08,0,.18,0,.27,0,.1-.01.19-.02.27h-3.26c.03.3.17.53.41.7.24.17.57.26.98.26.26,0,.52-.02.78-.07.25-.05.46-.11.62-.18l.19,1.17c-.08.04-.18.08-.31.12-.13.04-.27.07-.43.1s-.33.05-.51.07c-.18.02-.36.03-.54.03-.46,0-.85-.07-1.19-.2-.34-.14-.62-.32-.84-.55-.22-.23-.39-.51-.49-.83-.11-.32-.16-.67-.16-1.04ZM72.54,39.65c0-.12-.03-.24-.06-.36-.04-.12-.09-.22-.16-.31-.07-.09-.17-.16-.28-.22-.11-.06-.25-.09-.42-.09s-.3.03-.41.08c-.12.05-.21.13-.29.22-.08.09-.14.19-.18.31-.04.12-.07.24-.09.36h1.9Z"/>
      <path d="M78.21,40.01c0-.46-.06-.79-.18-.98-.12-.19-.32-.29-.61-.29-.09,0-.18,0-.28.01-.1,0-.19.02-.28.03v3.92h-1.44v-4.9c.12-.03.27-.07.43-.1.16-.04.34-.07.52-.1.18-.03.37-.05.56-.07.19-.02.38-.02.57-.02.37,0,.66.05.89.14.23.09.42.2.56.33.21-.15.44-.26.71-.35.27-.08.51-.13.74-.13.41,0,.74.06,1,.17.26.11.47.27.62.48.15.21.26.45.32.73.06.28.09.6.09.95v2.86h-1.44v-2.69c0-.46-.06-.79-.18-.98-.12-.19-.32-.29-.61-.29-.08,0-.18.02-.32.06-.14.04-.25.09-.34.14.04.15.07.3.09.47.01.16.02.34.02.53v2.77h-1.44v-2.69Z"/>
      <path d="M88.85,42.8c-.42,0-.76-.05-1.02-.14-.26-.08-.47-.2-.62-.35-.15-.15-.25-.33-.31-.55-.05-.22-.08-.46-.08-.73v-5.58l1.44-.23v5.53c0,.13,0,.24.03.35s.06.19.11.26c.05.07.13.13.24.17.1.05.24.07.41.09l-.2,1.19Z"/>
      <path d="M91.83,36.16c0,.26-.09.47-.26.62-.17.15-.37.23-.6.23s-.43-.08-.6-.23c-.17-.15-.26-.36-.26-.62s.09-.47.26-.62c.17-.15.37-.23.6-.23s.43.08.6.23.26.36.26.62ZM91.69,42.7h-1.44v-5.07h1.44v5.07Z"/>
      <path d="M96.22,40.01c0-.46-.06-.79-.18-.98-.12-.19-.32-.29-.61-.29-.09,0-.18,0-.28.01-.1,0-.19.02-.28.03v3.92h-1.44v-4.9c.12-.03.27-.07.43-.1.16-.04.34-.07.52-.1.18-.03.37-.05.56-.07.19-.02.38-.02.57-.02.37,0,.66.05.89.14.23.09.42.2.56.33.21-.15.44-.26.71-.35.27-.08.51-.13.74-.13.41,0,.74.06,1,.17.26.11.47.27.62.48.15.21.26.45.32.73.06.28.09.6.09.95v2.86h-1.44v-2.69c0-.46-.06-.79-.18-.98-.12-.19-.32-.29-.61-.29-.08,0-.18.02-.32.06-.14.04-.25.09-.34.14.04.15.07.3.09.47.01.16.02.34.02.53v2.77h-1.44v-2.69Z"/>
      <path d="M103.7,36.16c0,.26-.09.47-.26.62-.17.15-.37.23-.6.23s-.43-.08-.6-.23c-.17-.15-.26-.36-.26-.62s.09-.47.26-.62c.17-.15.37-.23.6-.23s.43.08.6.23.26.36.26.62ZM103.56,42.7h-1.44v-5.07h1.44v5.07Z"/>
      <path d="M105.25,36.36l1.44-.23v1.49h1.73v1.2h-1.73v1.78c0,.3.05.54.16.72s.32.27.64.27c.15,0,.31-.01.48-.04.16-.03.31-.07.45-.12l.2,1.12c-.17.07-.37.13-.58.18-.21.05-.47.08-.78.08-.39,0-.72-.05-.97-.16-.26-.11-.46-.25-.62-.44-.15-.19-.26-.42-.32-.69-.06-.27-.09-.57-.09-.9v-4.26Z"/>
      <path d="M109.54,40.2c0-.45.07-.84.21-1.18.14-.34.32-.62.54-.84.23-.22.48-.4.78-.51.29-.12.59-.17.9-.17.72,0,1.29.22,1.71.66.42.44.63,1.09.63,1.94,0,.08,0,.18,0,.27,0,.1-.01.19-.02.27h-3.26c.03.3.17.53.41.7.24.17.57.26.98.26.26,0,.52-.02.78-.07.25-.05.46-.11.62-.18l.19,1.17c-.08.04-.18.08-.31.12-.13.04-.27.07-.43.1s-.33.05-.51.07c-.18.02-.36.03-.54.03-.46,0-.85-.07-1.19-.2-.34-.14-.62-.32-.84-.55-.22-.23-.39-.51-.49-.83-.11-.32-.16-.67-.16-1.04ZM112.91,39.65c0-.12-.03-.24-.06-.36-.04-.12-.09-.22-.16-.31-.07-.09-.17-.16-.28-.22-.11-.06-.25-.09-.42-.09s-.3.03-.41.08c-.12.05-.21.13-.29.22-.08.09-.14.19-.18.31-.04.12-.07.24-.09.36h1.9Z"/>
      <path d="M120.27,42.53c-.13.04-.28.08-.44.11-.17.04-.34.07-.53.09-.18.03-.37.05-.56.06-.19.02-.37.02-.54.02-.42,0-.79-.06-1.12-.18-.33-.12-.6-.3-.83-.53-.23-.23-.4-.5-.52-.83-.12-.32-.18-.69-.18-1.09s.05-.78.15-1.11c.1-.33.25-.61.44-.84.19-.23.43-.41.71-.53s.6-.18.96-.18c.2,0,.38.02.54.06.16.04.32.09.48.16v-2.3l1.44-.23v7.32ZM117.02,40.12c0,.44.1.8.3,1.07.2.27.5.4.89.4.13,0,.25,0,.36-.01.11,0,.2-.02.27-.03v-2.61c-.09-.06-.21-.11-.35-.14-.14-.04-.29-.06-.44-.06-.68,0-1.02.46-1.02,1.39Z"/>
    </g>
  </g>
  <g>
    <path d="M192.83,12.61h-1.01v2.47h-.81v-2.47h-1.01v-.62h2.83v.62Z"/>
    <path d="M196.87,15.08h-.71v-1.42l.02-.95h0l-.76,2.37h-.65l-.76-2.37h0l.02.95v1.42h-.72v-3.1h1.15l.49,1.58.17.66h0l.18-.65.48-1.58h1.1v3.1Z"/>
  </g>
</svg>